# xmcd
#
# Track frame offsets:
#	150
#	17114
#	29843
#	56024
#	68764
#	85140
#	100993
#	123038
#	135752
#	151510
#
# Disc length: 2202 seconds
#
# Revision: 0
# Processed by: cddbd v1.5.2PL0 Copyright (c) Steve Scherf et al.
# Submitted via: audiograbber 1.83.01
#
DISCID=7308980a
DTITLE=Dani Wilde - Heal My Blues
DYEAR=2008
DGENRE=Blues
TTITLE0=Bring your loving home
TTITLE1=Heal my Blues
TTITLE2=I love you more than I hate myself
TTITLE3=I want your loving
TTITLE4=Testify
TTITLE5=In the mood
TTITLE6=Im going down
TTITLE7=Slow coach
TTITLE8=Little by little
TTITLE9=People like you
EXTD=
EXTT0=
EXTT1=
EXTT2=
EXTT3=
EXTT4=
EXTT5=
EXTT6=
EXTT7=
EXTT8=
EXTT9=
PLAYORDER=
